<svg xmlns="http://www.w3.org/2000/svg" width="244" height="18" viewBox="0 0 244 18" fill="none">
<path fill-rule="evenodd" clip-rule="evenodd" d="M14.9999 15.5527C13.4112 16.8681 11.3503 17.6622 9.09835 17.6622C4.07347 17.6622 0 13.7084 0 8.83112C0 3.95383 4.07347 0 9.09835 0C11.3503 0 13.4112 0.794139 15 2.10964C16.5887 0.794175 18.6496 6.10352e-05 20.9015 6.10352e-05C25.9264 6.10352e-05 29.9999 3.95389 29.9999 8.83118C29.9999 13.7085 25.9264 17.6623 20.9015 17.6623C18.6496 17.6623 16.5887 16.8682 14.9999 15.5527Z" fill="#ED0006"/>
<path fill-rule="evenodd" clip-rule="evenodd" d="M15 15.5527C16.9563 13.9329 18.1967 11.5227 18.1967 8.83125C18.1967 6.1398 16.9563 3.72957 15 2.10978C16.5888 0.794268 18.6497 0.00012207 20.9017 0.00012207C25.9265 0.00012207 30 3.95395 30 8.83125C30 13.7085 25.9265 17.6624 20.9017 17.6624C18.6497 17.6624 16.5888 16.8682 15 15.5527Z" fill="#F9A000"/>
<path fill-rule="evenodd" clip-rule="evenodd" d="M15.0001 15.5526C16.9563 13.9328 18.1967 11.5226 18.1967 8.83121C18.1967 6.1398 16.9563 3.72959 15.0001 2.1098C13.0439 3.72959 11.8035 6.1398 11.8035 8.83121C11.8035 11.5226 13.0439 13.9328 15.0001 15.5526Z" fill="#FF5E00"/>
<path fill-rule="evenodd" clip-rule="evenodd" d="M62.8585 15.8753H58.3405L54.9525 4.1164C54.7917 3.57549 54.4502 3.0973 53.948 2.87192C52.6946 2.30553 51.3134 1.85477 49.8066 1.62743V1.17471H57.0848C58.0893 1.17471 58.8427 1.85477 58.9683 2.64458L60.7261 11.1267L65.242 1.17471H69.6345L62.8585 15.8753ZM72.1456 15.8753H67.8787L71.3923 1.17471H75.6592L72.1456 15.8753ZM81.1795 5.24712C81.3051 4.45534 82.0584 4.00262 82.9374 4.00262C84.3186 3.88895 85.8231 4.11629 87.0787 4.68072L87.8321 1.51558C86.5765 1.06285 85.1953 0.83551 83.9419 0.83551C79.8005 0.83551 76.787 2.87179 76.787 5.69788C76.787 7.84783 78.9216 8.9767 80.4283 9.65677C82.0584 10.3349 82.6863 10.7876 82.5607 11.4657C82.5607 12.4829 81.3051 12.9356 80.0517 12.9356C78.5449 12.9356 77.0382 12.5965 75.6592 12.0301L74.9058 15.1972C76.4125 15.7617 78.0427 15.989 79.5494 15.989C84.193 16.1007 87.0787 14.0664 87.0787 11.013C87.0787 7.16777 81.1795 6.94238 81.1795 5.24712ZM102.012 15.8753L98.6238 1.17471H94.9847C94.2313 1.17471 93.478 1.62743 93.2268 2.30553L86.9532 15.8753H91.3456L92.2224 13.7274H97.6193L98.1216 15.8753H102.012ZM95.6125 5.13359L96.8659 10.674H93.3524L95.6125 5.13359Z" fill="#172B85"/>
<path d="M157.361 9.59871L157.846 9.7312C157.814 9.85633 157.765 9.95938 157.692 10.0403C157.62 10.1213 157.539 10.1876 157.433 10.2244C157.328 10.2685 157.199 10.2906 157.037 10.2906C156.843 10.2906 156.689 10.2685 156.56 10.217C156.438 10.1655 156.333 10.0771 156.244 9.94466C156.155 9.81953 156.107 9.65023 156.107 9.4515C156.107 9.18652 156.188 8.98042 156.341 8.83321C156.495 8.686 156.722 8.61975 157.005 8.61975C157.231 8.61975 157.401 8.66392 157.531 8.74488C157.66 8.82585 157.757 8.95098 157.814 9.12763L157.328 9.22332C157.312 9.1718 157.296 9.13499 157.272 9.11291C157.239 9.07611 157.207 9.04666 157.158 9.02458C157.11 9.0025 157.061 8.99514 157.013 8.99514C156.891 8.99514 156.794 9.0393 156.73 9.13499C156.681 9.20124 156.657 9.31165 156.657 9.4515C156.657 9.62815 156.689 9.75328 156.746 9.81953C156.802 9.88577 156.891 9.92258 156.997 9.92258C157.102 9.92258 157.183 9.89313 157.231 9.84161C157.296 9.77536 157.336 9.70176 157.361 9.59871Z" fill="#02757A"/>
<path d="M158.04 9.45044C158.04 9.18546 158.121 8.97936 158.283 8.83215C158.445 8.68493 158.671 8.61133 158.963 8.61133C159.262 8.61133 159.488 8.68494 159.65 8.82479C159.812 8.972 159.893 9.17073 159.893 9.43571C159.893 9.62709 159.861 9.78166 159.788 9.89943C159.715 10.0172 159.618 10.1129 159.48 10.1791C159.351 10.2454 159.181 10.2822 158.987 10.2822C158.785 10.2822 158.623 10.2527 158.485 10.1939C158.356 10.135 158.251 10.0466 158.162 9.91415C158.073 9.78166 158.04 9.64181 158.04 9.45044ZM158.59 9.45044C158.59 9.61237 158.623 9.73014 158.687 9.80374C158.752 9.87735 158.841 9.91415 158.963 9.91415C159.084 9.91415 159.173 9.87735 159.238 9.8111C159.302 9.7375 159.335 9.61237 159.335 9.43571C159.335 9.28114 159.302 9.17073 159.23 9.10449C159.165 9.03088 159.068 9.00144 158.954 9.00144C158.841 9.00144 158.752 9.03824 158.687 9.11185C158.623 9.17073 158.59 9.2885 158.59 9.45044Z" fill="#02757A"/>
<path d="M160.176 8.64099H160.896L161.171 9.62723L161.446 8.64099H162.166V10.2602H161.713V9.02371L161.365 10.2602H160.961L160.613 9.02371V10.2602H160.16V8.64099H160.176Z" fill="#02757A"/>
<path d="M162.522 8.64099H163.436C163.638 8.64099 163.784 8.68515 163.881 8.77348C163.978 8.8618 164.027 8.97957 164.027 9.1415C164.027 9.30343 163.97 9.43592 163.865 9.52424C163.76 9.61993 163.59 9.66409 163.371 9.66409H163.072V10.2676H162.522V8.64099ZM163.072 9.33287H163.21C163.315 9.33287 163.388 9.31815 163.436 9.28135C163.477 9.24455 163.501 9.20775 163.501 9.15622C163.501 9.1047 163.485 9.06054 163.444 9.02373C163.404 8.98693 163.339 8.97221 163.234 8.97221H163.08V9.33287H163.072Z" fill="#02757A"/>
<path d="M164.318 8.64099H164.868V9.86275H165.726V10.2602H164.318V8.64099Z" fill="#02757A"/>
<path d="M166.001 8.64099H166.551V10.2602H166.001V8.64099Z" fill="#02757A"/>
<path d="M168.039 9.98847H167.416L167.327 10.2534H166.769L167.441 8.63434H168.039L168.711 10.2534H168.136L168.039 9.98847ZM167.926 9.64257L167.732 9.06118L167.538 9.64257H167.926Z" fill="#02757A"/>
<path d="M168.881 8.64099H169.39L170.062 9.53891V8.64099H170.58V10.2602H170.062L169.398 9.36963V10.2602H168.881V8.64099Z" fill="#02757A"/>
<path d="M170.822 8.64099H172.497V9.03843H171.939V10.2602H171.389V9.03843H170.83V8.64099H170.822Z" fill="#02757A"/>
<path d="M150.743 11.1062L152.337 10.6499L151.819 9.60482C151.439 10.0391 151.059 10.5984 150.743 11.1062ZM150.201 6.32965L147.078 0.00012207L124.216 1.17771L130.551 16.8985L142.742 13.4025C141.965 12.3869 141.682 11.1798 142.58 10.591C143.583 9.92865 145.096 10.6941 146.059 11.776C146.989 10.3629 149.602 7.073 150.201 6.32965Z" fill="#02757A"/>
<path d="M146.366 4.57435C147.32 4.57435 148.097 3.91194 148.097 3.08762C148.097 2.26329 147.32 1.60089 146.366 1.60089C145.411 1.60089 144.635 2.26329 144.635 3.08762C144.635 3.90458 145.411 4.57435 146.366 4.57435ZM144.95 5.21467H147.782V11.9491H144.95V5.21467Z" fill="#FEFEFE"/>
<path d="M143.551 7.17982C143.575 7.18718 143.591 7.17982 143.591 7.15774V5.45021C143.591 5.42813 143.575 5.40605 143.551 5.39133C143.551 5.39133 143.178 5.17053 142.046 5.11165C141.989 5.08221 140.994 5.07485 140.727 5.11165C136.601 5.41341 136.448 8.12926 136.448 8.24702V8.90943C136.448 8.99039 136.448 11.7651 140.727 12.008C141.148 12.0374 141.965 12.008 142.046 12.008C143.033 12.008 143.712 11.7357 143.712 11.7357C143.737 11.7283 143.753 11.7062 143.753 11.6842V10.087C143.753 10.065 143.737 10.0576 143.72 10.0723C143.72 10.0723 143.413 10.2931 142.07 10.4182C141.69 10.455 141.504 10.4403 141.366 10.4182C139.457 10.1238 139.368 8.85791 139.368 8.85791C139.368 8.83583 139.36 8.79903 139.36 8.78431V8.29854C139.36 8.27646 139.36 8.23966 139.368 8.22494C139.368 8.22494 139.497 6.86334 141.366 6.71614H142.07C142.887 6.81182 143.551 7.17982 143.551 7.17982Z" fill="#FEFEFE"/>
<path d="M128.584 11.927C128.584 11.9491 128.6 11.9638 128.625 11.9638H131.383C131.408 11.9638 131.424 11.9491 131.424 11.927V9.96923C131.424 9.94715 131.44 9.93243 131.464 9.93243C131.464 9.93243 135.873 10.2195 135.873 7.53303C135.873 5.40595 133.107 5.17779 132.2 5.21459C132.184 5.21459 128.625 5.21459 128.625 5.21459C128.6 5.21459 128.584 5.22931 128.584 5.25139V11.927ZM131.375 8.43832V6.67926H132.055C132.055 6.67926 133.034 6.71606 133.115 7.32695C133.131 7.37111 133.131 7.67287 133.115 7.68759C132.985 8.40152 132.136 8.43832 132.136 8.43832H131.375Z" fill="#FEFEFE"/>
<path d="M146.447 15.1985C146.674 15.1985 146.852 15.1985 147.143 15.0807C148.146 14.6023 151.536 7.07303 155.112 4.75463C155.136 4.73991 155.16 4.71783 155.177 4.69575C155.201 4.66631 155.201 4.63687 155.201 4.63687C155.201 4.63687 155.201 4.48231 154.675 4.48231C151.496 4.40135 148.187 10.4734 146.447 12.8727C146.423 12.9022 146.31 12.8727 146.31 12.8727C146.31 12.8727 145.145 11.6215 144.134 11.1431C144.109 11.1358 143.996 11.099 143.875 11.1063C143.794 11.1063 143.325 11.1946 143.106 11.4007C142.847 11.651 142.855 11.7908 142.855 12.0926C142.855 12.1146 142.872 12.2177 142.904 12.2692C143.155 12.6666 144.279 14.0798 145.21 14.8599C145.347 14.9556 145.566 15.1985 146.447 15.1985Z" fill="#02757A"/>
<path d="M156.05 2.48077H158.695C159.221 2.48077 159.642 2.54701 159.958 2.67214C160.281 2.80462 160.548 2.98862 160.75 3.22414C160.961 3.46702 161.114 3.7467 161.203 4.06318C161.3 4.37966 161.349 4.71822 161.349 5.07886C161.349 5.63822 161.276 6.07247 161.139 6.38159C161.001 6.69071 160.807 6.94831 160.556 7.16175C160.305 7.36783 160.038 7.50767 159.755 7.58127C159.367 7.67695 159.011 7.72111 158.695 7.72111H156.05V2.48077ZM157.83 3.66574V6.52879H158.267C158.639 6.52879 158.906 6.49199 159.06 6.41839C159.213 6.34479 159.343 6.21231 159.432 6.02831C159.521 5.84431 159.569 5.53518 159.569 5.11566C159.569 4.5563 159.472 4.18094 159.27 3.97486C159.068 3.76878 158.744 3.66574 158.275 3.66574H157.83Z" fill="#02757A"/>
<path d="M161.842 5.99114L163.541 5.89546C163.582 6.1457 163.654 6.33706 163.768 6.46954C163.954 6.68297 164.213 6.78601 164.552 6.78601C164.803 6.78601 165.005 6.73449 165.143 6.62409C165.281 6.51369 165.353 6.38858 165.353 6.24874C165.353 6.11626 165.289 5.99114 165.159 5.88074C165.03 5.77034 164.722 5.67466 164.245 5.57898C163.46 5.41706 162.91 5.20362 162.57 4.93867C162.231 4.67371 162.069 4.33515 162.069 3.92299C162.069 3.65068 162.158 3.40044 162.328 3.15756C162.498 2.91468 162.756 2.73068 163.104 2.59084C163.452 2.45101 163.921 2.38477 164.52 2.38477C165.256 2.38477 165.823 2.50989 166.203 2.76012C166.591 3.01036 166.818 3.4078 166.89 3.95243L165.208 4.04075C165.159 3.80524 165.07 3.63596 164.925 3.52556C164.779 3.41516 164.585 3.36364 164.334 3.36364C164.124 3.36364 163.97 3.40044 163.865 3.4814C163.76 3.56236 163.711 3.65804 163.711 3.7758C163.711 3.85676 163.752 3.93771 163.841 4.00395C163.921 4.07019 164.124 4.13643 164.439 4.19531C165.216 4.34987 165.774 4.50443 166.114 4.65899C166.454 4.81355 166.696 5.01227 166.85 5.24042C167.004 5.46858 167.076 5.73354 167.076 6.02058C167.076 6.35914 166.971 6.66825 166.769 6.94793C166.567 7.23497 166.276 7.44841 165.912 7.59561C165.547 7.74281 165.078 7.8164 164.52 7.8164C163.541 7.8164 162.862 7.64713 162.481 7.30121C162.109 6.95529 161.899 6.52106 161.842 5.99114Z" fill="#02757A"/>
<path d="M167.53 5.99114L169.229 5.89546C169.269 6.1457 169.342 6.33706 169.455 6.46954C169.641 6.68297 169.9 6.78601 170.24 6.78601C170.491 6.78601 170.693 6.73449 170.83 6.62409C170.968 6.51369 171.041 6.38858 171.041 6.24874C171.041 6.11626 170.976 5.99114 170.847 5.88074C170.717 5.77034 170.41 5.67466 169.933 5.57898C169.148 5.41706 168.598 5.20362 168.258 4.93867C167.926 4.67371 167.756 4.33515 167.756 3.92299C167.756 3.65068 167.845 3.40044 168.015 3.15756C168.185 2.91468 168.444 2.73068 168.792 2.59084C169.14 2.45101 169.609 2.38477 170.208 2.38477C170.944 2.38477 171.51 2.50989 171.89 2.76012C172.279 3.01036 172.505 3.4078 172.578 3.95243L170.895 4.04075C170.847 3.80524 170.758 3.63596 170.612 3.52556C170.466 3.41516 170.272 3.36364 170.021 3.36364C169.811 3.36364 169.657 3.40044 169.552 3.4814C169.447 3.56236 169.399 3.65804 169.399 3.7758C169.399 3.85676 169.439 3.93771 169.528 4.00395C169.609 4.07019 169.811 4.13643 170.127 4.19531C170.903 4.34987 171.462 4.50443 171.801 4.65899C172.141 4.81355 172.384 5.01227 172.537 5.24042C172.691 5.46858 172.764 5.73354 172.764 6.02058C172.764 6.35914 172.659 6.66825 172.457 6.94793C172.254 7.23497 171.963 7.44841 171.599 7.59561C171.235 7.74281 170.766 7.8164 170.208 7.8164C169.229 7.8164 168.549 7.64713 168.169 7.30121C167.789 6.95529 167.578 6.52106 167.53 5.99114Z" fill="#02757A"/>
<g clip-path="url(#clip0)">
<path fill-rule="evenodd" clip-rule="evenodd" d="M205.282 2.85388e-07V0.0065505C205.275 0.0065505 203.212 2.49871e-07 202.661 1.97162C202.157 3.77948 200.735 8.77074 200.696 8.9083H200.303C200.303 8.9083 198.848 3.80568 198.337 1.96507C197.787 -0.00654999 195.717 2.85388e-07 195.717 2.85388e-07H191V15H195.717V6.0917H195.913H196.11L198.862 15H202.137L204.889 6.09825H205.282V15H209.999V2.85388e-07H205.282Z" fill="#4DB45E"/>
<path fill-rule="evenodd" clip-rule="evenodd" d="M222.512 0C222.512 0 221.13 0.124454 220.481 1.57205L217.14 8.9083H216.747V0H212.03V15H216.485C216.485 15 217.933 14.869 218.581 13.4279L221.857 6.0917H222.25V15H226.967V0H222.512Z" fill="#4DB45E"/>
<path fill-rule="evenodd" clip-rule="evenodd" d="M229.063 6.81226V15H233.78V10.2184H238.89C241.117 10.2184 243.004 8.79697 243.705 6.81226H229.063Z" fill="#4DB45E"/>
<path fill-rule="evenodd" clip-rule="evenodd" d="M238.89 0H228.401C228.925 2.8559 231.068 5.14847 233.839 5.8952C234.468 6.0655 235.13 6.15721 235.811 6.15721H243.895C243.967 5.81659 244 5.46943 244 5.10917C244 2.28603 241.714 0 238.89 0Z" fill="url(#paint0_linear)"/>
</g>
<defs>
<linearGradient id="paint0_linear" x1="228.403" y1="3.0786" x2="244" y2="3.0786" gradientUnits="userSpaceOnUse">
<stop offset="0.3" stop-color="#00B4E6"/>
<stop offset="1" stop-color="#088CCB"/>
</linearGradient>
<clipPath id="clip0">
<rect width="53" height="15" fill="white" transform="translate(191)"/>
</clipPath>
</defs>
</svg>