<svg xmlns="http://www.w3.org/2000/svg" width="113" height="22" viewBox="0 0 113 22" fill="none">
<path d="M0.223999 0.488037H9.056C10.608 0.488037 11.8 0.832037 12.632 1.52004C13.48 2.19204 13.904 3.23204 13.904 4.64004C13.904 5.80804 13.664 6.68804 13.184 7.28004C12.72 7.87204 11.976 8.28804 10.952 8.52804V8.62404C11.64 8.80004 12.192 9.02404 12.608 9.29604C13.04 9.55204 13.368 9.94404 13.592 10.472C13.832 10.984 13.952 11.688 13.952 12.584C13.952 14.072 13.552 15.184 12.752 15.92C11.968 16.64 10.72 17 9.008 17H0.223999V0.488037ZM6.896 7.01604C7.344 7.01604 7.664 6.99204 7.856 6.94404C8.048 6.88004 8.176 6.76004 8.24 6.58404C8.304 6.40804 8.336 6.11204 8.336 5.69604C8.336 5.26404 8.304 4.96004 8.24 4.78404C8.176 4.60804 8.048 4.49604 7.856 4.44804C7.68 4.38404 7.36 4.35204 6.896 4.35204H5.744V7.01604H6.896ZM6.896 13.136C7.36 13.136 7.68 13.112 7.856 13.064C8.048 13 8.176 12.88 8.24 12.704C8.304 12.512 8.336 12.192 8.336 11.744C8.336 11.296 8.304 10.976 8.24 10.784C8.176 10.592 8.048 10.464 7.856 10.4C7.664 10.336 7.344 10.304 6.896 10.304H5.744V13.136H6.896Z" fill="#05CC7A"/>
<path d="M16.0677 17V0.488037H28.1637V4.49604H21.6597V6.70404H27.0357V10.616H21.6597V12.992H28.1637V17H16.0677Z" fill="#05CC7A"/>
<path d="M38.9287 17L37.2727 11.504H36.1447V17H30.5287V0.488037H39.2167C40.6567 0.488037 41.7447 0.688037 42.4807 1.08804C43.2167 1.47204 43.7047 2.04804 43.9447 2.81604C44.2007 3.58404 44.3287 4.64804 44.3287 6.00804C44.3287 7.28804 44.2007 8.31204 43.9447 9.08004C43.6887 9.83204 43.1847 10.416 42.4327 10.832L44.6887 17H38.9287ZM37.1527 7.78404C37.6487 7.78404 37.9927 7.75204 38.1847 7.68804C38.3927 7.62404 38.5287 7.48804 38.5927 7.28004C38.6727 7.05604 38.7127 6.66404 38.7127 6.10404C38.7127 5.52804 38.6887 5.13604 38.6407 4.92804C38.5927 4.72004 38.4647 4.58404 38.2567 4.52004C38.0487 4.44004 37.6727 4.40004 37.1287 4.40004H36.1447V7.78404H37.1527Z" fill="#05CC7A"/>
<path d="M46.4896 17V0.488037H52.1056V17H46.4896Z" fill="#05CC7A"/>
<path d="M1.224 0.488021H10.056C11.608 0.488021 12.8 0.832021 13.632 1.52002C14.48 2.19202 14.904 3.23202 14.904 4.64002C14.904 5.80802 14.664 6.68802 14.184 7.28002C13.72 7.87202 12.976 8.28802 11.952 8.52802V8.62402C12.64 8.80002 13.192 9.02402 13.608 9.29602C14.04 9.55202 14.368 9.94402 14.592 10.472C14.832 10.984 14.952 11.688 14.952 12.584C14.952 14.072 14.552 15.184 13.752 15.92C12.968 16.64 11.72 17 10.008 17H1.224V0.488021ZM7.896 7.01602C8.344 7.01602 8.664 6.99202 8.856 6.94402C9.048 6.88002 9.176 6.76002 9.24 6.58402C9.304 6.40802 9.336 6.11202 9.336 5.69602C9.336 5.26402 9.304 4.96002 9.24 4.78402C9.176 4.60802 9.048 4.49602 8.856 4.44802C8.68 4.38402 8.36 4.35202 7.896 4.35202H6.744V7.01602H7.896ZM7.896 13.136C8.36 13.136 8.68 13.112 8.856 13.064C9.048 13 9.176 12.88 9.24 12.704C9.304 12.512 9.336 12.192 9.336 11.744C9.336 11.296 9.304 10.976 9.24 10.784C9.176 10.592 9.048 10.464 8.856 10.4C8.664 10.336 8.344 10.304 7.896 10.304H6.744V13.136H7.896Z" fill="white"/>
<path d="M17.0677 17V0.488021H29.1637V4.49602H22.6597V6.70402H28.0357V10.616H22.6597V12.992H29.1637V17H17.0677Z" fill="white"/>
<path d="M39.9287 17L38.2727 11.504H37.1447V17H31.5287V0.488021H40.2167C41.6567 0.488021 42.7447 0.688021 43.4807 1.08802C44.2167 1.47202 44.7047 2.04802 44.9447 2.81602C45.2007 3.58402 45.3287 4.64802 45.3287 6.00802C45.3287 7.28802 45.2007 8.31202 44.9447 9.08002C44.6887 9.83202 44.1847 10.416 43.4327 10.832L45.6887 17H39.9287ZM38.1527 7.78402C38.6487 7.78402 38.9927 7.75202 39.1847 7.68802C39.3927 7.62402 39.5287 7.48802 39.5927 7.28002C39.6727 7.05602 39.7127 6.66402 39.7127 6.10402C39.7127 5.52802 39.6887 5.13602 39.6407 4.92802C39.5927 4.72002 39.4647 4.58402 39.2567 4.52002C39.0487 4.44002 38.6727 4.40002 38.1287 4.40002H37.1447V7.78402H38.1527Z" fill="white"/>
<path d="M47.4896 17V0.488021H53.1056V17H47.4896Z" fill="white"/>
<path d="M55.5521 17V0.488021H67.1681V4.49602H61.1441V7.40002H66.2801V11.408H61.1441V17H55.5521Z" fill="white"/>
<path d="M78.1941 17L77.5941 14.528H72.8181L72.2421 17H66.7941L71.3781 0.488021H79.1781L83.7621 17H78.1941ZM75.2901 5.00002H75.0741L73.7301 10.688H76.6581L75.2901 5.00002Z" fill="white"/>
<path d="M91.3284 17.192C90.3044 17.192 89.1844 17.152 87.9684 17.072C86.7684 16.992 85.7524 16.888 84.9204 16.76V12.944C86.8724 13.104 88.4164 13.184 89.5524 13.184C90.2404 13.184 90.7284 13.176 91.0164 13.16C91.3204 13.128 91.5284 13.072 91.6404 12.992C91.7524 12.912 91.8164 12.816 91.8324 12.704C91.8644 12.576 91.8804 12.376 91.8804 12.104C91.8804 11.784 91.8324 11.56 91.7364 11.432C91.6404 11.288 91.4644 11.192 91.2084 11.144C90.9524 11.08 90.4564 11 89.7204 10.904L86.9124 10.544C85.9844 10.432 85.3364 9.95202 84.9684 9.10402C84.6164 8.24002 84.4404 6.99202 84.4404 5.36002C84.4404 3.98402 84.7204 2.92802 85.2804 2.19202C85.8404 1.44002 86.5844 0.936021 87.5124 0.680021C88.4564 0.424021 89.6084 0.296021 90.9684 0.296021C91.9764 0.296021 93.0084 0.34402 94.0644 0.44002C95.1364 0.536021 95.9924 0.656021 96.6324 0.800021V4.56802C96.0084 4.48802 95.2484 4.42402 94.3524 4.37602C93.4564 4.32802 92.6324 4.30402 91.8804 4.30402C91.0804 4.30402 90.5844 4.36002 90.3924 4.47202C90.1524 4.63202 90.0324 4.88002 90.0324 5.21602C90.0324 5.52002 90.0564 5.73602 90.1044 5.86402C90.1684 5.99202 90.2804 6.08802 90.4404 6.15202C90.6164 6.20002 90.9284 6.25602 91.3764 6.32002L93.8964 6.63202C94.6324 6.72802 95.2404 6.89602 95.7204 7.13602C96.2164 7.37602 96.6244 7.80802 96.9444 8.43202C97.2964 9.08802 97.4724 10.16 97.4724 11.648C97.4724 13.248 97.2164 14.448 96.7044 15.248C96.1924 16.048 95.5044 16.576 94.6404 16.832C93.7764 17.072 92.6724 17.192 91.3284 17.192Z" fill="white"/>
<path d="M102.617 17V4.71202H98.5854V0.488021H112.289V4.71202H108.233V17H102.617Z" fill="white"/>
<rect x="55.5" y="20" width="52.75" height="2" fill="#05CC7A"/>
</svg>